<svg width="2208" height="309" viewBox="0 0 2208 309" fill="none" xmlns="http://www.w3.org/2000/svg">
<path fill-rule="evenodd" clip-rule="evenodd" d="M327.86 63.054C307.266 42.4598 279.334 30.89 250.209 30.89V0C287.527 0 323.316 14.8242 349.703 41.2115C376.09 67.5988 390.914 103.388 390.914 140.705H360.024C360.024 111.58 348.455 83.6483 327.86 63.054ZM289.11 101.803C278.951 91.6444 264.03 85.6898 249.209 85.6898V54.7998C271.763 54.7998 294.684 63.6919 310.953 79.9604C327.063 96.0705 336.113 117.92 336.113 140.704H305.223C305.223 126.113 299.427 112.12 289.11 101.803ZM258.209 117.046C249.373 117.046 242.209 124.209 242.209 133.046C242.209 141.882 249.373 149.046 258.209 149.046C267.046 149.046 274.209 141.882 274.209 133.046C274.209 124.209 267.046 117.046 258.209 117.046ZM0 2.64367H15.445H106.978C127.258 2.64367 146.708 10.7 161.048 25.0403C163.561 27.5533 165.881 30.2232 167.999 33.027C170.116 30.2235 172.436 27.5538 174.949 25.041C179.346 20.6441 184.224 16.837 189.46 13.6721L202.677 5.68215L218.657 32.1176L205.44 40.1076C202.32 41.9934 199.413 44.2619 196.791 46.8835C188.337 55.3374 183.548 66.7703 183.444 78.7148C183.444 78.8467 183.445 78.9786 183.445 79.1106V239.513C192.602 234.292 203.038 231.477 213.764 231.477H305.107V195.297V179.852H335.997V195.297V246.922V262.367H320.552H213.764C205.722 262.367 198.009 265.561 192.323 271.248C186.637 276.934 183.442 284.646 183.442 292.688H152.552V291.086C152.451 283.652 149.578 277.151 143.674 271.247C137.987 265.56 130.275 262.366 122.233 262.366H15.445H0V246.921V18.0887V2.64367ZM152.552 239.512C143.395 234.291 132.959 231.476 122.233 231.476H30.89V33.5337H106.978C119.066 33.5337 130.658 38.3355 139.206 46.8828C147.66 55.3368 152.449 66.7699 152.553 78.7146C152.552 78.8468 152.552 78.979 152.552 79.1113V239.512Z" fill="#070052"/>
<path d="M565.397 239.445C617.063 239.445 647.698 207.485 647.698 154.494C647.698 101.669 617.063 69.8742 566.556 69.8742H507.935V239.445H565.397ZM538.653 212.867V96.4524H564.817C599.261 96.4524 617.228 115.662 617.228 154.494C617.228 193.492 599.261 212.867 563.906 212.867H538.653ZM675.56 239.445H705.533V112.267H675.56V239.445ZM690.629 94.2169C700.151 94.2169 707.934 86.9306 707.934 77.9884C707.934 68.9634 700.151 61.6771 690.629 61.6771C681.025 61.6771 673.242 68.9634 673.242 77.9884C673.242 86.9306 681.025 94.2169 690.629 94.2169ZM791.664 289.786C826.025 289.786 851.361 274.055 851.361 241.515V112.267H821.802V133.298H820.146C815.592 124.107 806.071 110.611 783.632 110.611C754.239 110.611 731.138 133.629 731.138 175.442C731.138 216.924 754.239 237.624 783.55 237.624C805.326 237.624 815.51 225.949 820.146 216.593H821.637V240.687C821.637 259.399 809.217 267.1 792.161 267.1C774.111 267.1 766.162 258.571 762.519 251.12L735.527 257.661C740.991 275.462 759.29 289.786 791.664 289.786ZM791.912 214.109C772.123 214.109 761.691 198.708 761.691 175.276C761.691 152.176 771.958 135.202 791.912 135.202C811.204 135.202 821.802 151.182 821.802 175.276C821.802 199.536 811.039 214.109 791.912 214.109ZM938.382 241.929C968.024 241.929 988.393 227.439 993.692 205.332L965.706 202.186C961.649 212.95 951.713 218.58 938.796 218.58C919.422 218.58 906.588 205.829 906.339 184.053H994.934V174.862C994.934 130.234 968.107 110.611 936.809 110.611C900.378 110.611 876.615 137.355 876.615 176.601C876.615 216.51 900.047 241.929 938.382 241.929ZM906.422 163.85C907.333 147.622 919.339 133.96 937.223 133.96C954.445 133.96 966.037 146.545 966.203 163.85H906.422ZM1120.81 145.883C1116.67 124.355 1099.45 110.611 1069.64 110.611C1039 110.611 1018.14 125.68 1018.22 149.195C1018.14 167.742 1029.56 179.996 1053.99 185.047L1075.68 189.6C1087.36 192.167 1092.82 196.887 1092.82 204.09C1092.82 212.784 1083.38 219.325 1069.14 219.325C1055.4 219.325 1046.45 213.364 1043.89 201.937L1014.66 204.753C1018.39 228.102 1038.01 241.929 1069.22 241.929C1101.02 241.929 1123.46 225.452 1123.54 201.358C1123.46 183.225 1111.78 172.13 1087.77 166.914L1066.08 162.277C1053.16 159.379 1048.03 154.908 1048.11 147.539C1048.03 138.928 1057.55 132.966 1070.05 132.966C1083.88 132.966 1091.17 140.501 1093.48 148.864L1120.81 145.883ZM1211.76 112.267H1186.67V81.7971H1156.7V112.267H1138.65V135.45H1156.7V206.16C1156.54 230.089 1173.92 241.846 1196.44 241.184C1204.97 240.935 1210.85 239.279 1214.08 238.203L1209.03 214.771C1207.37 215.185 1203.98 215.93 1200.25 215.93C1192.72 215.93 1186.67 213.281 1186.67 201.192V135.45H1211.76V112.267ZM1353.45 239.445C1405.12 239.445 1435.75 207.485 1435.75 154.494C1435.75 101.669 1405.12 69.8742 1354.61 69.8742H1295.99V239.445H1353.45ZM1326.71 212.867V96.4524H1352.87C1387.31 96.4524 1405.28 115.662 1405.28 154.494C1405.28 193.492 1387.31 212.867 1351.96 212.867H1326.71ZM1519.92 241.929C1549.56 241.929 1569.93 227.439 1575.23 205.332L1547.24 202.186C1543.18 212.95 1533.25 218.58 1520.33 218.58C1500.96 218.58 1488.12 205.829 1487.87 184.053H1576.47V174.862C1576.47 130.234 1549.64 110.611 1518.34 110.611C1481.91 110.611 1458.15 137.355 1458.15 176.601C1458.15 216.51 1481.58 241.929 1519.92 241.929ZM1487.96 163.85C1488.87 147.622 1500.87 133.96 1518.76 133.96C1535.98 133.96 1547.57 146.545 1547.74 163.85H1487.96ZM1631.8 69.8742H1601.82V239.445H1631.8V69.8742ZM1662.62 239.445H1692.59V112.267H1662.62V239.445ZM1677.69 94.2169C1687.21 94.2169 1694.99 86.9306 1694.99 77.9884C1694.99 68.9634 1687.21 61.6771 1677.69 61.6771C1668.08 61.6771 1660.3 68.9634 1660.3 77.9884C1660.3 86.9306 1668.08 94.2169 1677.69 94.2169ZM1837.01 112.267H1805.14L1775.83 206.74H1774.5L1745.27 112.267H1713.31L1758.6 239.445H1791.72L1837.01 112.267ZM1909.73 241.929C1939.37 241.929 1959.74 227.439 1965.04 205.332L1937.05 202.186C1933 212.95 1923.06 218.58 1910.14 218.58C1890.77 218.58 1877.94 205.829 1877.69 184.053H1966.28V174.862C1966.28 130.234 1939.46 110.611 1908.16 110.611C1871.73 110.611 1847.96 137.355 1847.96 176.601C1847.96 216.51 1871.39 241.929 1909.73 241.929ZM1877.77 163.85C1878.68 147.622 1890.69 133.96 1908.57 133.96C1925.79 133.96 1937.39 146.545 1937.55 163.85H1877.77ZM1991.64 239.445H2021.61V164.678C2021.61 148.533 2033.78 137.106 2050.26 137.106C2055.31 137.106 2061.6 138.017 2064.17 138.845V111.273C2061.44 110.777 2056.72 110.445 2053.41 110.445C2038.83 110.445 2026.66 118.725 2022.03 133.463H2020.7V112.267H1991.64V239.445ZM2106.58 287.137C2129.93 287.137 2143.43 275.131 2150.63 254.846L2201.72 112.432L2169.68 112.267L2140.28 208.313H2138.96L2109.65 112.267H2077.85L2123.97 242.095L2121.4 248.967C2115.86 263.457 2107.08 264.45 2094 260.641L2087.04 283.991C2091.1 285.647 2098.39 287.137 2106.58 287.137Z" fill="#070052"/>
</svg>
