<svg width="391" height="309" viewBox="0 0 391 309" fill="none" xmlns="http://www.w3.org/2000/svg">
<path fill-rule="evenodd" clip-rule="evenodd" d="M327.86 63.054C307.266 42.4598 279.334 30.89 250.209 30.89V0C287.527 0 323.316 14.8242 349.703 41.2115C376.09 67.5988 390.914 103.388 390.914 140.705H360.024C360.024 111.58 348.455 83.6483 327.86 63.054ZM289.11 101.803C278.951 91.6444 264.03 85.6898 249.209 85.6898V54.7998C271.763 54.7998 294.684 63.6919 310.953 79.9604C327.063 96.0705 336.113 117.92 336.113 140.704H305.223C305.223 126.113 299.427 112.12 289.11 101.803ZM258.209 117.046C249.373 117.046 242.209 124.209 242.209 133.046C242.209 141.882 249.373 149.046 258.209 149.046C267.046 149.046 274.209 141.882 274.209 133.046C274.209 124.209 267.046 117.046 258.209 117.046ZM0 2.64367H15.445H106.978C127.258 2.64367 146.708 10.7 161.048 25.0403C163.561 27.5533 165.881 30.2232 167.999 33.027C170.116 30.2235 172.436 27.5538 174.949 25.041C179.346 20.6441 184.224 16.837 189.46 13.6721L202.677 5.68215L218.657 32.1176L205.44 40.1076C202.32 41.9934 199.413 44.2619 196.791 46.8835C188.337 55.3374 183.548 66.7703 183.444 78.7148C183.444 78.8467 183.445 78.9786 183.445 79.1106V239.513C192.602 234.292 203.038 231.477 213.764 231.477H305.107V195.297V179.852H335.997V195.297V246.922V262.367H320.552H213.764C205.722 262.367 198.009 265.561 192.323 271.248C186.637 276.934 183.442 284.646 183.442 292.688H152.552V291.086C152.451 283.652 149.578 277.151 143.674 271.247C137.987 265.56 130.275 262.366 122.233 262.366H15.445H0V246.921V18.0887V2.64367ZM152.552 239.512C143.395 234.291 132.959 231.476 122.233 231.476H30.89V33.5337H106.978C119.066 33.5337 130.658 38.3355 139.206 46.8828C147.66 55.3368 152.449 66.7699 152.553 78.7146C152.552 78.8468 152.552 78.979 152.552 79.1113V239.512Z" fill="#070052"/>
</svg>
