<svg width="932" height="309" viewBox="0 0 932 309" fill="none" xmlns="http://www.w3.org/2000/svg">
<path fill-rule="evenodd" clip-rule="evenodd" d="M327.86 63.054C307.266 42.4598 279.334 30.89 250.209 30.89V0C287.527 0 323.316 14.8242 349.703 41.2115C376.09 67.5988 390.914 103.388 390.914 140.705H360.024C360.024 111.58 348.455 83.6483 327.86 63.054ZM289.11 101.803C278.951 91.6444 264.03 85.6898 249.209 85.6898V54.7998C271.763 54.7998 294.684 63.6919 310.953 79.9604C327.063 96.0705 336.113 117.92 336.113 140.704H305.223C305.223 126.113 299.427 112.12 289.11 101.803ZM258.209 117.046C249.373 117.046 242.209 124.209 242.209 133.046C242.209 141.882 249.373 149.046 258.209 149.046C267.046 149.046 274.209 141.882 274.209 133.046C274.209 124.209 267.046 117.046 258.209 117.046ZM0 2.64367H15.445H106.978C127.258 2.64367 146.708 10.7 161.048 25.0403C163.561 27.5533 165.881 30.2232 167.999 33.027C170.116 30.2235 172.436 27.5538 174.949 25.041C179.346 20.6441 184.224 16.837 189.46 13.6721L202.677 5.68215L218.657 32.1176L205.44 40.1076C202.32 41.9934 199.413 44.2619 196.791 46.8835C188.337 55.3374 183.548 66.7703 183.444 78.7148C183.444 78.8467 183.445 78.9786 183.445 79.1106V239.513C192.602 234.292 203.038 231.477 213.764 231.477H305.107V195.297V179.852H335.997V195.297V246.922V262.367H320.552H213.764C205.722 262.367 198.009 265.561 192.323 271.248C186.637 276.934 183.442 284.646 183.442 292.688H152.552V291.086C152.451 283.652 149.578 277.151 143.674 271.247C137.987 265.56 130.275 262.366 122.233 262.366H15.445H0V246.921V18.0887V2.64367ZM152.552 239.512C143.395 234.291 132.959 231.476 122.233 231.476H30.89V33.5337H106.978C119.066 33.5337 130.658 38.3355 139.206 46.8828C147.66 55.3368 152.449 66.7699 152.553 78.7146C152.552 78.8468 152.552 78.979 152.552 79.1113V239.512Z" fill="#070052"/>
<path d="M509.536 129C534.612 129 549.801 113.489 549.801 87.7705C549.801 62.1327 534.612 46.7018 509.778 46.7018H480.362V129H509.536ZM497.762 114.091V61.6103H508.853C524.284 61.6103 532.442 69.4865 532.442 87.7705C532.442 106.135 524.284 114.091 508.813 114.091H497.762ZM562.369 129H579.488V67.2764H562.369V129ZM570.969 59.3198C576.072 59.3198 580.251 55.4219 580.251 50.6399C580.251 45.8981 576.072 42.0002 570.969 42.0002C565.905 42.0002 561.726 45.8981 561.726 50.6399C561.726 55.4219 565.905 59.3198 570.969 59.3198ZM621.009 153.432C638.65 153.432 651.187 145.395 651.187 129.603V67.2764H634.189V77.644H633.546C631.256 72.6209 626.233 66.4727 615.905 66.4727C602.363 66.4727 590.91 77.001 590.91 98.0176C590.91 118.552 602.041 128.116 615.945 128.116C625.791 128.116 631.296 123.173 633.546 118.07H634.27V129.362C634.27 137.841 628.845 141.136 621.411 141.136C613.856 141.136 610.038 137.841 608.632 134.103L592.799 136.233C594.848 145.958 604.372 153.432 621.009 153.432ZM621.37 115.257C612.972 115.257 608.391 108.586 608.391 97.9373C608.391 87.4491 612.891 80.0953 621.37 80.0953C629.689 80.0953 634.35 87.1276 634.35 97.9373C634.35 108.827 629.608 115.257 621.37 115.257ZM692.939 130.206C708.209 130.206 718.497 122.771 720.908 111.319L705.075 110.274C703.347 114.976 698.927 117.427 693.22 117.427C684.661 117.427 679.236 111.761 679.236 102.558V102.518H721.269V97.8167C721.269 76.8403 708.571 66.4727 692.256 66.4727C674.093 66.4727 662.318 79.3719 662.318 98.4195C662.318 117.989 673.932 130.206 692.939 130.206ZM679.236 91.9096C679.598 84.8772 684.942 79.2514 692.537 79.2514C699.972 79.2514 705.115 84.5558 705.155 91.9096H679.236ZM783.797 84.8772C782.27 73.505 773.108 66.4727 757.516 66.4727C741.723 66.4727 731.316 73.7863 731.356 85.6809C731.316 94.9234 737.142 100.911 749.198 103.322L759.887 105.452C765.272 106.537 767.723 108.506 767.803 111.6C767.723 115.257 763.745 117.869 757.757 117.869C751.649 117.869 747.59 115.257 746.546 110.234L729.708 111.118C731.316 122.932 741.362 130.206 757.717 130.206C773.71 130.206 785.163 122.048 785.203 109.872C785.163 100.951 779.336 95.6065 767.361 93.1553L756.19 90.9049C750.443 89.6592 748.314 87.6902 748.354 84.7165C748.314 81.0195 752.493 78.6084 757.797 78.6084C763.745 78.6084 767.281 81.8634 768.125 85.8417L783.797 84.8772ZM828.814 67.2764H817.2V52.4884H800.082V67.2764H791.643V80.1355H800.082V112.283C800.001 124.379 808.239 130.366 820.656 129.844C825.076 129.683 828.211 128.799 829.939 128.236L827.246 115.498C826.402 115.659 824.594 116.061 822.987 116.061C819.571 116.061 817.2 114.775 817.2 110.033V80.1355H828.814V67.2764ZM509.536 261C534.612 261 549.801 245.489 549.801 219.771C549.801 194.133 534.612 178.702 509.778 178.702H480.362V261H509.536ZM497.762 246.091V193.61H508.853C524.284 193.61 532.442 201.487 532.442 219.771C532.442 238.135 524.284 246.091 508.813 246.091H497.762ZM590.498 262.206C605.769 262.206 616.056 254.771 618.467 243.319L602.634 242.274C600.906 246.976 596.486 249.427 590.78 249.427C582.22 249.427 576.795 243.761 576.795 234.558V234.518H618.829V229.817C618.829 208.84 606.13 198.473 589.815 198.473C571.652 198.473 559.878 211.372 559.878 230.419C559.878 249.989 571.491 262.206 590.498 262.206ZM576.795 223.91C577.157 216.877 582.502 211.251 590.097 211.251C597.531 211.251 602.674 216.556 602.715 223.91H576.795ZM647.119 178.702H630V261H647.119V178.702ZM660.832 261H677.95V199.276H660.832V261ZM669.431 191.32C674.535 191.32 678.714 187.422 678.714 182.64C678.714 177.898 674.535 174 669.431 174C664.368 174 660.189 177.898 660.189 182.64C660.189 187.422 664.368 191.32 669.431 191.32ZM749.208 199.276H731.084L718.306 243.439H717.663L704.844 199.276H686.761L708.34 261H727.629L749.208 199.276ZM783.998 262.206C799.268 262.206 809.555 254.771 811.966 243.319L796.133 242.274C794.405 246.976 789.985 249.427 784.279 249.427C775.72 249.427 770.295 243.761 770.295 234.558V234.518H812.328V229.817C812.328 208.84 799.629 198.473 783.315 198.473C765.151 198.473 753.377 211.372 753.377 230.419C753.377 249.989 764.99 262.206 783.998 262.206ZM770.295 223.91C770.656 216.877 776.001 211.251 783.596 211.251C791.03 211.251 796.174 216.556 796.214 223.91H770.295ZM823.499 261H840.618V226.08C840.618 218.485 846.163 213.261 853.718 213.261C856.089 213.261 859.344 213.662 860.951 214.185V198.995C859.424 198.633 857.294 198.392 855.567 198.392C848.655 198.392 842.989 202.411 840.738 210.046H840.095V199.276H823.499V261ZM882.249 284.146C894.988 284.146 901.739 277.636 905.235 267.671L929.225 199.357L911.102 199.276L898.202 244.605H897.559L884.781 199.276H866.778L888.92 262.768L887.915 265.38C885.665 271.167 881.365 271.448 875.337 269.6L871.48 282.378C873.931 283.423 877.909 284.146 882.249 284.146Z" fill="#070052"/>
</svg>
